<?xml version="1.0" standalone="no"?>
<!DOCTYPE svg PUBLIC "-//W3C//DTD SVG 20010904//EN"
 "http://www.w3.org/TR/2001/REC-SVG-20010904/DTD/svg10.dtd">
<svg version="1.0" xmlns="http://www.w3.org/2000/svg"
 width="512.000000pt" height="512.000000pt" viewBox="0 0 512.000000 512.000000"
 preserveAspectRatio="xMidYMid meet">

<g transform="translate(0.000000,512.000000) scale(0.100000,-0.100000)"
fill="#005cb6" stroke="none">
<path d="M2719 5105 c-35 -19 -41 -35 -48 -134 l-6 -84 -80 -27 c-44 -15 -97
-35 -117 -44 l-37 -16 -56 65 c-71 80 -106 91 -163 52 -76 -53 -267 -224 -280
-251 -19 -38 -10 -65 48 -137 28 -34 50 -65 50 -68 0 -3 -14 -26 -31 -51 -16
-25 -44 -72 -61 -105 -17 -33 -31 -61 -32 -62 -1 -2 -39 4 -84 13 -73 14 -84
14 -111 -1 -17 -8 -35 -24 -40 -34 -18 -33 -73 -363 -66 -398 8 -45 44 -66
139 -82 l75 -12 6 -37 c3 -20 13 -76 23 -124 l18 -87 -76 -45 c-81 -47 -108
-83 -96 -129 3 -12 45 -92 94 -177 76 -132 95 -158 127 -174 l37 -19 90 47 90
47 47 -43 c25 -24 67 -59 94 -77 26 -19 47 -35 47 -36 0 0 -14 -40 -30 -88
-33 -93 -32 -122 3 -155 25 -23 345 -142 382 -142 40 0 73 40 104 124 l28 79
126 1 125 1 27 -76 c42 -122 79 -146 170 -114 212 75 303 112 322 131 30 30
29 69 -2 156 -14 38 -25 73 -25 77 0 4 26 29 58 54 31 25 74 60 94 77 l37 31
73 -42 c86 -50 127 -55 163 -18 13 13 63 91 110 173 115 201 114 219 -15 295
-38 23 -70 45 -70 49 0 4 7 31 14 60 8 29 18 82 21 117 l7 63 85 15 c92 17
127 39 136 83 2 13 -10 105 -27 204 -45 250 -54 258 -253 215 -19 -5 -27 4
-52 52 -16 32 -45 82 -64 112 l-35 54 54 66 c63 75 71 121 32 165 -45 49 -278
236 -302 242 -45 11 -73 -8 -158 -110 -24 -28 -25 -28 -56 -12 -17 9 -71 29
-119 46 l-88 29 -5 90 c-8 138 -3 135 -248 138 -157 2 -202 0 -223 -12z m300
-586 c251 -31 454 -176 567 -404 52 -106 74 -197 74 -318 0 -119 -22 -213 -78
-327 -39 -81 -60 -109 -136 -185 -150 -149 -306 -215 -511 -215 -336 0 -615
212 -707 537 -31 110 -31 267 1 378 82 290 319 496 613 534 90 12 86 12 177 0z"/>
<path d="M3095 2184 c-49 -7 -178 -30 -285 -49 -445 -80 -649 -106 -1040 -130
-496 -30 -634 -51 -760 -116 -151 -76 -376 -311 -630 -654 -91 -123 -250 -360
-250 -372 0 -5 198 -201 441 -436 l440 -427 92 85 c210 193 461 372 595 424
81 31 82 31 279 31 361 0 1156 40 1304 65 402 68 1207 532 1630 941 83 80 96
109 79 175 -30 111 -164 178 -329 166 -138 -10 -299 -77 -630 -262 -469 -261
-613 -305 -991 -305 -146 0 -447 33 -520 57 -24 8 35 28 314 109 144 41 293
89 331 108 191 91 313 242 323 402 4 61 1 80 -18 119 -35 71 -65 85 -185 84
-55 -1 -140 -7 -190 -15z"/>
</g>
</svg>
