<?xml version="1.0" standalone="no"?>
<!DOCTYPE svg PUBLIC "-//W3C//DTD SVG 20010904//EN"
 "http://www.w3.org/TR/2001/REC-SVG-20010904/DTD/svg10.dtd">
<svg version="1.0" xmlns="http://www.w3.org/2000/svg"
 width="471.000000pt" height="419.000000pt" viewBox="0 0 471.000000 419.000000"
 preserveAspectRatio="xMidYMid meet">

<g transform="translate(0.000000,419.000000) scale(0.100000,-0.100000)"
fill="#005cb6" stroke="none">
<path d="M2281 3883 l-39 -78 -88 -15 c-115 -19 -118 -30 -35 -114 l61 -61
-15 -85 c-13 -75 -13 -86 0 -100 14 -13 24 -11 95 26 l80 41 80 -41 c71 -37
81 -39 95 -26 13 14 13 25 0 100 l-15 85 61 61 c83 84 80 95 -35 114 l-88 15
-39 78 c-29 57 -44 77 -59 77 -15 0 -30 -20 -59 -77z m90 -85 c24 -52 25 -53
79 -62 30 -5 57 -11 59 -13 3 -2 -14 -23 -37 -46 l-42 -43 10 -54 c6 -29 8
-55 6 -57 -2 -3 -27 7 -55 21 l-51 26 -51 -26 c-28 -14 -53 -24 -55 -21 -2 2
0 28 6 57 l10 54 -42 43 c-23 23 -40 44 -37 46 2 2 29 8 59 13 54 9 56 10 80
61 14 29 28 52 31 53 3 0 16 -24 30 -52z"/>
<path d="M1877 3453 c-15 -14 -6 -51 17 -72 50 -47 89 1 42 52 -24 26 -46 34
-59 20z"/>
<path d="M2322 3328 c-9 -9 -12 -135 -12 -507 0 -272 -4 -491 -8 -486 -4 6
-18 37 -31 70 -41 104 -106 198 -197 285 -62 58 -93 80 -108 78 -44 -6 -29
-40 48 -110 131 -119 200 -245 268 -494 45 -161 71 -165 113 -16 41 145 93
290 126 353 17 31 63 100 104 153 72 96 80 118 48 131 -39 14 -194 -200 -253
-351 -20 -52 -40 -97 -44 -101 -3 -3 -6 216 -6 488 0 484 -2 519 -30 519 -3 0
-11 -5 -18 -12z"/>
<path d="M2000 3295 c-10 -12 -5 -25 23 -72 58 -97 96 -179 132 -286 28 -84
38 -103 56 -105 12 -2 25 2 29 9 19 30 -69 264 -150 400 -42 70 -65 84 -90 54z"/>
<path d="M2800 3125 c-34 -34 -37 -35 -83 -26 -34 6 -52 5 -64 -4 -17 -13 -16
-16 8 -67 l26 -53 -26 -46 c-22 -40 -24 -49 -12 -63 12 -14 24 -16 68 -10 53
6 55 6 94 -32 49 -48 70 -40 82 32 7 46 11 51 55 74 65 35 66 57 3 92 -47 26
-50 30 -58 80 -7 46 -11 53 -33 56 -18 2 -35 -8 -60 -33z m40 -95 c0 -11 12
-27 26 -37 l26 -16 -26 -14 c-14 -8 -26 -22 -26 -33 0 -26 -15 -33 -30 -15 -7
8 -25 15 -41 15 -31 0 -36 9 -17 28 9 9 9 18 0 37 -16 35 -16 35 16 29 19 -4
32 -1 41 10 18 22 31 20 31 -4z"/>
<path d="M1732 3127 c-6 -7 -14 -32 -18 -55 -6 -38 -10 -43 -51 -58 -45 -17
-67 -42 -55 -61 4 -5 26 -22 49 -36 40 -25 42 -29 45 -79 3 -45 6 -53 25 -56
13 -2 35 9 58 29 35 31 38 32 82 22 76 -18 88 -1 57 76 -15 39 -15 41 11 86
23 38 25 48 14 61 -10 13 -25 15 -62 11 -46 -6 -49 -5 -84 33 -37 42 -54 48
-71 27z m102 -127 c24 0 26 -2 15 -21 -6 -12 -9 -32 -6 -45 4 -21 0 -24 -24
-24 -15 0 -31 -4 -34 -10 -10 -17 -25 -11 -25 10 0 11 -9 25 -20 32 -25 16
-25 25 0 33 11 3 23 17 26 31 6 23 8 24 23 9 10 -8 30 -15 45 -15z"/>
<path d="M3195 3031 c-92 -44 -147 -88 -143 -114 4 -30 32 -33 70 -5 18 13 64
39 103 59 57 29 70 40 70 60 0 35 -29 35 -100 0z"/>
<path d="M1370 2825 c-20 -24 -6 -41 65 -73 210 -99 437 -298 705 -619 28 -35
57 -63 64 -63 15 0 36 20 36 36 0 6 -44 63 -97 125 -250 293 -439 457 -652
566 -94 48 -103 50 -121 28z"/>
<path d="M3189 2797 c-213 -109 -402 -273 -652 -566 -54 -63 -96 -121 -95
-129 2 -8 11 -20 21 -26 15 -9 23 -6 45 20 223 255 292 329 379 407 126 111
230 184 342 240 87 43 101 58 81 82 -18 22 -27 20 -121 -28z"/>
<path d="M1377 2620 c-13 -18 -18 -20 -37 -10 -43 23 -70 -34 -29 -62 18 -11
20 -18 11 -34 -12 -23 1 -54 23 -54 8 0 20 9 28 20 11 16 21 19 46 14 23 -5
36 -3 42 7 12 20 11 25 -8 45 -11 10 -18 33 -18 53 0 29 -4 37 -22 39 -13 2
-27 -5 -36 -18z"/>
<path d="M3165 2619 c-4 -5 -4 -21 -1 -34 4 -17 0 -31 -14 -45 -16 -16 -18
-25 -10 -40 12 -22 23 -25 50 -10 15 8 21 6 30 -10 7 -14 19 -20 33 -18 18 2
22 9 22 38 -1 23 5 40 17 48 37 27 7 74 -36 54 -18 -8 -25 -6 -34 9 -13 21
-47 26 -57 8z"/>
<path d="M1511 2360 c-172 -60 -261 -96 -276 -112 -108 -112 -395 -429 -395
-435 1 -23 33 -38 210 -98 107 -36 198 -69 202 -73 4 -4 9 -226 10 -492 l3
-485 538 -180 538 -180 537 180 537 180 3 485 c1 266 6 488 10 492 4 4 95 37
202 73 177 60 209 75 210 98 0 7 -348 389 -399 437 -18 18 -101 51 -266 108
-132 45 -250 82 -261 82 -26 0 -37 -22 -21 -44 7 -8 97 -44 201 -80 104 -36
191 -67 194 -70 3 -3 -1 -8 -9 -11 -123 -44 -934 -315 -944 -315 -8 0 -32 7
-52 15 -21 8 -225 78 -453 155 -228 77 -421 143 -429 145 -8 3 -12 8 -9 10 3
3 95 36 204 74 196 68 199 69 199 97 0 18 -6 30 -15 31 -8 1 -129 -38 -269
-87z m278 -325 c267 -91 486 -167 487 -168 5 -5 -338 -372 -349 -375 -11 -2
-976 323 -985 333 -7 7 338 375 351 375 7 0 230 -74 496 -165z m1781 -20 c95
-102 170 -188 168 -190 -10 -10 -974 -335 -985 -333 -11 3 -354 370 -350 375
7 6 964 332 979 332 9 1 93 -82 188 -184z m-1260 -925 c0 -385 -3 -700 -7
-700 -4 0 -227 73 -495 162 l-488 163 0 453 0 453 23 -6 c12 -4 153 -52 312
-107 l290 -99 102 108 c57 59 135 145 175 190 40 45 76 82 81 82 4 1 7 -314 7
-699z m148 617 c40 -45 118 -131 175 -190 l102 -108 290 99 c160 55 300 103
313 106 l22 7 0 -453 0 -453 -488 -163 c-268 -89 -491 -162 -495 -162 -4 0 -7
315 -7 700 0 385 3 700 8 699 4 0 40 -37 80 -82z"/>
</g>
</svg>
