<?xml version="1.0" standalone="no"?>
<!DOCTYPE svg PUBLIC "-//W3C//DTD SVG 20010904//EN"
 "http://www.w3.org/TR/2001/REC-SVG-20010904/DTD/svg10.dtd">
<svg version="1.0" xmlns="http://www.w3.org/2000/svg"
 width="270.000000pt" height="311.000000pt" viewBox="0 0 270.000000 311.000000"
 preserveAspectRatio="xMidYMid meet">

<g transform="translate(0.000000,311.000000) scale(0.100000,-0.100000)"
fill="#005cb6" stroke="none">
<path d="M1110 2984 c-66 -28 -118 -95 -135 -171 l-7 -33 -107 0 c-70 0 -111
-4 -119 -12 -7 -7 -12 -39 -12 -72 0 -102 47 -169 136 -196 27 -8 138 -10 360
-8 l321 3 41 28 c58 38 82 89 82 176 0 54 -3 70 -16 75 -9 3 -62 6 -119 6
l-103 0 -12 49 c-14 60 -69 127 -124 152 -50 23 -138 24 -186 3z m145 -130
c32 -21 49 -73 35 -108 -10 -26 -11 -27 -92 -24 -78 3 -82 4 -88 28 -9 35 6
82 33 102 28 22 80 23 112 2z"/>
<path d="M435 2715 c-5 -2 -22 -6 -37 -9 -37 -8 -98 -63 -114 -103 -12 -26
-14 -221 -14 -1072 0 -710 3 -1049 11 -1068 13 -34 55 -80 91 -99 22 -11 121
-14 557 -14 292 -1 531 3 531 7 0 4 -7 41 -16 80 l-16 73 -496 2 -497 3 0
1015 0 1015 103 3 102 3 0 84 0 85 -97 -1 c-54 0 -102 -2 -108 -4z"/>
<path d="M1760 2635 l0 -84 103 -3 102 -3 3 -687 2 -688 80 0 80 0 0 700 c0
772 3 739 -63 797 -48 42 -91 53 -209 53 l-98 0 0 -85z"/>
<path d="M803 2248 l-82 -82 -45 42 c-25 23 -49 42 -54 42 -14 0 -52 -45 -52
-61 0 -16 130 -149 145 -149 17 0 235 224 235 241 0 19 -31 49 -51 49 -8 0
-51 -37 -96 -82z"/>
<path d="M1070 2130 c-26 -26 -25 -52 3 -78 23 -22 29 -22 340 -22 304 0 318
1 337 20 11 11 20 29 20 40 0 11 -9 29 -20 40 -19 19 -33 20 -340 20 -307 0
-321 -1 -340 -20z"/>
<path d="M801 1845 l-87 -85 -39 40 c-22 22 -46 40 -55 40 -20 0 -50 -31 -50
-51 0 -8 34 -48 75 -89 l74 -74 116 114 c63 63 115 121 115 130 0 17 -39 60
-54 60 -5 0 -48 -38 -95 -85z"/>
<path d="M1063 1714 c-15 -24 -15 -29 -2 -53 l15 -26 328 -3 c296 -2 331 -1
348 14 23 22 23 56 0 77 -17 15 -55 17 -345 17 l-327 0 -17 -26z"/>
<path d="M800 1435 l-84 -85 -41 40 c-22 22 -48 40 -56 40 -19 0 -49 -31 -49
-51 0 -16 130 -149 145 -149 18 0 235 224 235 242 0 17 -36 48 -55 48 -6 0
-48 -38 -95 -85z"/>
<path d="M1076 1319 c-31 -24 -33 -52 -6 -79 19 -19 33 -20 345 -20 l325 0 16
25 c21 33 11 73 -22 85 -14 6 -158 10 -328 10 -292 0 -304 -1 -330 -21z"/>
<path d="M803 1028 l-82 -82 -45 42 c-25 23 -49 42 -54 42 -14 0 -52 -45 -52
-61 0 -16 130 -149 145 -149 17 0 235 224 235 241 0 19 -31 49 -51 49 -8 0
-51 -37 -96 -82z"/>
<path d="M1868 1027 c-133 -46 -238 -145 -290 -275 -19 -47 -23 -76 -23 -167
0 -106 1 -113 36 -185 44 -90 90 -146 162 -193 188 -125 444 -96 595 67 90 98
126 200 120 340 -3 77 -9 102 -36 160 -43 91 -92 150 -166 198 -122 79 -268
99 -398 55z m287 -139 c115 -59 177 -154 183 -283 5 -104 -20 -175 -86 -243
-74 -75 -128 -97 -242 -97 -112 0 -163 20 -234 90 -71 71 -91 123 -91 235 0
110 17 154 89 228 73 77 139 103 251 98 62 -2 91 -8 130 -28z"/>
<path d="M2083 648 l-113 -112 -53 52 c-29 29 -62 52 -73 52 -25 0 -64 -40
-64 -66 0 -11 39 -58 94 -113 80 -79 96 -92 112 -83 32 18 294 288 294 303 0
16 -60 79 -75 79 -4 0 -59 -50 -122 -112z"/>
<path d="M1070 910 c-11 -11 -20 -29 -20 -40 0 -11 9 -29 20 -40 19 -19 33
-20 214 -20 l194 0 35 60 36 60 -229 0 c-217 0 -231 -1 -250 -20z"/>
</g>
</svg>
